<svg width="1924" height="1032" viewBox="0 0 1924 1032" fill="none" xmlns="http://www.w3.org/2000/svg">
<rect x="2" y="2" width="1920" height="1028" fill="white"/>
<path d="M2 5C28.0205 17.5672 49.6922 49.478 72.0943 83.2245C104.405 131.897 135.267 186.179 164.484 245.585C180.839 278.839 193.195 311.922 197.606 363.611C201.669 411.215 208.3 451.64 218.859 493.066C248.35 608.761 297.335 693.411 350.707 730.498C364.728 740.241 380.967 739.504 394.336 753.355C406.615 766.076 418.522 786.618 428.982 806.555C447.37 841.606 457.805 894.316 474.054 934.237C488.96 970.859 504.049 1004.88 524.579 1020.93C536.684 1030.4 552.234 1030 565 1030" stroke="#943738" stroke-width="3" stroke-linecap="round"/>
<path d="M2 1030C12.5281 1002.05 19.6852 981.578 34.187 964.842C57.8482 937.536 82.0212 927.55 108.654 922.451C166.491 911.376 229.863 918.229 281.5 849.639C314.87 805.313 321.285 728.822 330.962 653.97C341.453 572.828 353.274 498.749 381.698 438.086C407.106 383.858 445.401 373.995 472.44 326.807C499.074 280.327 512.314 212.94 518.356 141.932C522.97 87.71 541.483 27.3806 565 2" stroke="#58595A" stroke-width="3" stroke-linecap="round"/>
<path d="M1245 2C1246.93 35.8138 1259.32 76.3096 1271.87 104.335C1289.01 142.613 1306.36 169.02 1333.76 190.266C1363.28 213.162 1397.57 224.099 1429.75 236.166C1470.71 251.527 1512 265.125 1551.47 287.785C1574.32 300.905 1597.51 314.964 1615.12 340.608C1630.14 362.481 1644.02 388.029 1655.93 413.596C1667.64 438.719 1678.98 464.102 1691.79 488.09C1706.81 516.23 1727.61 539.131 1747.27 560.025C1765.33 579.211 1784.91 593.608 1804 610.29C1818.81 623.235 1836.08 634.006 1849.46 650.02C1871.74 676.67 1886.54 715.912 1901.13 751.15C1914.59 783.685 1922 820.119 1922 858" stroke="#58595A" stroke-width="3" stroke-linecap="round"/>
<path d="M1420 1030C1420 990.325 1427.03 950.594 1440.46 925.625C1449.55 908.729 1461.05 899.88 1472.15 893.495C1495.48 880.066 1518.28 863.977 1541.04 845.787C1579.81 814.812 1626.63 780.829 1645.42 687.277C1660.65 611.45 1662.73 521.577 1681.81 449.708C1702.24 372.748 1729.44 301.52 1764.65 264.131C1792.36 234.706 1820.03 209.306 1841.47 155.667C1855.66 120.157 1863.94 70.5641 1881.16 43.1141C1894.69 21.5323 1906.79 14.9668 1922 3" stroke="#943738" stroke-width="3" stroke-linecap="round"/>
</svg>
