<svg width="51" height="7" viewBox="0 0 51 7" fill="none" xmlns="http://www.w3.org/2000/svg">
<path d="M50.0133 7C48.1565 7 47.3607 5.30242 46.6048 3.66476C46.0212 2.41655 45.3713 0.998573 44.4562 0.998573C43.5411 0.998573 42.878 2.41655 42.3077 3.66476C41.5517 5.30242 40.756 7 38.8992 7C37.0424 7 36.2599 5.30242 35.4907 3.66476C34.9072 2.41655 34.2573 0.998573 33.3422 0.998573C32.4271 0.998573 31.7639 2.41655 31.1936 3.66476C30.4377 5.30242 29.6552 7 27.7851 7C25.9151 7 25.1459 5.30242 24.3767 3.66476C23.7931 2.41655 23.1432 0.998573 22.2281 0.998573C21.313 0.998573 20.6499 2.41655 20.0796 3.66476C19.3236 5.30242 18.5411 7 16.6711 7C14.8011 7 14.0318 5.30242 13.2626 3.66476C12.679 2.41655 12.0292 0.998573 11.1141 0.998573C10.1989 0.998573 9.53581 2.41655 8.96552 3.66476C8.20955 5.30242 7.42706 7 5.55703 7C3.687 7 2.91777 5.30242 2.14854 3.66476C1.56499 2.41655 0.915119 0.998573 0 0.998573V0C1.85676 0 2.63926 1.69757 3.39523 3.33524C3.97878 4.58345 4.62865 6.00143 5.54377 6.00143C6.45889 6.00143 7.12202 4.58345 7.69231 3.33524C8.44828 1.69757 9.23077 0 11.1008 0C12.9708 0 13.7401 1.69757 14.5093 3.33524C15.0928 4.58345 15.7427 6.00143 16.6578 6.00143C17.5729 6.00143 18.2361 4.58345 18.8064 3.33524C19.5623 1.69757 20.3448 0 22.2149 0C24.0849 0 24.8541 1.69757 25.6233 3.33524C26.2069 4.58345 26.8568 6.00143 27.7719 6.00143C28.687 6.00143 29.3501 4.58345 29.9204 3.33524C30.6764 1.69757 31.4589 0 33.3289 0C35.1989 0 35.9814 1.69757 36.7374 3.33524C37.321 4.58345 37.9708 6.00143 38.8859 6.00143C39.8011 6.00143 40.4642 4.58345 41.0345 3.33524C41.7904 1.69757 42.5862 0 44.443 0C46.2997 0 47.0955 1.69757 47.8515 3.33524C48.435 4.58345 49.0849 6.00143 50 6.00143V7H50.0133Z" fill="white"/>
</svg>
