<svg xmlns="http://www.w3.org/2000/svg" viewBox="0 0 325.97 130.13"><defs><style>.cls-1{fill:#943738;}.cls-2{fill:#58595a;}</style></defs><g id="Слой_2" data-name="Слой 2"><g id="Слой_1-2" data-name="Слой 1"><path class="cls-1" d="M305.71,63.54c.2-6.2-5.58-10.8-11.82-11.7a31.63,31.63,0,0,0-11.45.78l.18,0C195.79,69,108,84.93,21.14,101.37L279.43,79.68c5.54-.46,11.25-1,16.41-3.43S305.55,68.89,305.71,63.54ZM264.85,64a43,43,0,0,1,7.5-3.08,55.52,55.52,0,0,1,11.32-2.26,31.29,31.29,0,0,1,9.29.63A9.72,9.72,0,0,1,297.07,61a4,4,0,0,1,1.48,4,7.61,7.61,0,0,1-3,3.92c-3.78,2.57-6,3.21-10.36,4a67.1,67.1,0,0,1-18.8.22,4.84,4.84,0,0,1-1.55-9.1Z"/><path class="cls-2" d="M91.14,71.09a19.92,19.92,0,0,1-1.22,12.72,36.15,36.15,0,0,1-6.21,9.89,57.11,57.11,0,0,1-9.19,9.12,45.41,45.41,0,0,1-16,7.5,19.43,19.43,0,0,1-7.87.71c-2.59-.42-4.18-1.77-4.77-4a5.62,5.62,0,0,1,.12-3.7,3.23,3.23,0,0,1,2.22-2,48,48,0,0,1,6.15-.57,25.38,25.38,0,0,0,4.7-.61,51.38,51.38,0,0,0,10-3.71,36.15,36.15,0,0,0,7.31-4.65,31.9,31.9,0,0,0,6.82-8.14c1.78-3.05,2.48-5.31,2.1-6.8A6.54,6.54,0,0,0,83,73.22q-2.57-1.92-6.73-.83a24.83,24.83,0,0,0-5.09,2,45.27,45.27,0,0,0-5.3,3.25q-.78,8.88-1.36,11.83Q63,97.25,60.14,98c-3,.8-4.89-.1-5.56-2.68q-.63-2.41,1-8.43a71.27,71.27,0,0,1,3.08-8.76,9.41,9.41,0,0,1-4.09-.22,3.29,3.29,0,0,1-1.88-2.46,4.24,4.24,0,0,1,.46-2.81c.5-1.09,1.08-1.72,1.73-1.89l1.54-.41a51.65,51.65,0,0,0,5-1.72q1.3-5.31,4.88-15.34c1.83-4.88,3.17-8.58,4-11.07a15.83,15.83,0,0,0-3.64-.09,22.39,22.39,0,0,0-3.65.65A35.64,35.64,0,0,0,53,48.4a27.84,27.84,0,0,0-5.91,5.89,5.83,5.83,0,0,1-3.78,3c-1,.25-1.65.14-2.05-.34a5.62,5.62,0,0,1-1-2.18q-1-4,7.15-11a42.22,42.22,0,0,1,16.79-9.3q9.3-2.43,15.75.13,7.16,2.88,9.33,11.2a14.31,14.31,0,0,1-1.66,10.67A39.48,39.48,0,0,1,80,65.85a13.48,13.48,0,0,1,7.2.86A6.43,6.43,0,0,1,91.14,71.09ZM81.78,48.73a7,7,0,0,0-2.21-3.14A6.41,6.41,0,0,0,76,43.72q-4,11.28-7.86,22.52a29.64,29.64,0,0,0,8.7-5.48Q83.4,54.93,81.78,48.73Z"/><path class="cls-2" d="M118.44,60.81A11.8,11.8,0,0,1,120,56.74a3.67,3.67,0,0,1,2.11-1.83,6.22,6.22,0,0,1,2-.12c.5.07.82.49,1,1.24a33.23,33.23,0,0,1-1.32,5.38c-.94,3.31-1.34,5.29-1.22,6s.38,1.19.69,1.3a3.1,3.1,0,0,0,1.46,0c.94-.18,2.75-2.14,5.41-5.87s4.37-5.66,5.13-5.8A1.24,1.24,0,0,1,136.9,58q.3,1.56-5.22,9.2-5.85,8.15-9,8.74a4.43,4.43,0,0,1-5.27-3.47,9.65,9.65,0,0,1,0-2.94,23.86,23.86,0,0,1,.52-3,26,26,0,0,1-3.6,2.48,23.7,23.7,0,0,1-3.93,1.88,10,10,0,0,1-3.41,6A14.52,14.52,0,0,1,100.11,80a3.91,3.91,0,0,1-3.26-.73A5.2,5.2,0,0,1,95,76a19.43,19.43,0,0,1,.23-7.66,59.7,59.7,0,0,1,1.69-6.18,31.1,31.1,0,0,1,1.32-3.84,3.7,3.7,0,0,1,2.59-2.18,3.17,3.17,0,0,1,2.17.25,2,2,0,0,1,1.09,1.48,2.17,2.17,0,0,1,0,.66A17.64,17.64,0,0,1,102.44,63c-.62,1.14-1,2-1.3,2.44a6.07,6.07,0,0,1,2.58-1.08,6.41,6.41,0,0,1,3.78.39,5.23,5.23,0,0,1,2.73,3,5.2,5.2,0,0,0,2.1-1.1c.79-.61,1.37-1.05,1.76-1.32a21.74,21.74,0,0,0,3-2.67A5.43,5.43,0,0,0,118.44,60.81ZM104.66,72.73A7,7,0,0,0,105,71a4.56,4.56,0,0,1-2.12,0,4.11,4.11,0,0,1-1.5-.77L100,69.07a4.48,4.48,0,0,0-.35,1.2,9.83,9.83,0,0,0-.11,1.56,7.67,7.67,0,0,0,.07,1.35c.21,1.08.54,1.69,1,1.82a3,3,0,0,0,1.4.06,3.11,3.11,0,0,0,1.48-.68A4.72,4.72,0,0,0,104.66,72.73Z"/><path class="cls-2" d="M187.53,50.27q-.25,2.17-5.63,8.17-6.06,6.72-10.51,7.57a5.39,5.39,0,0,1-4.93-1.26,6.39,6.39,0,0,1-1.93-3.6,5.52,5.52,0,0,1,.05-1.69c0-.15.1-.61.25-1.37q-3.29,5.46-4,6.25a11.93,11.93,0,0,1-7.17,4.29,3.58,3.58,0,0,1-3.05-.63,3.7,3.7,0,0,1-1.44-2.18,11.76,11.76,0,0,1-.25-2.3,7.1,7.1,0,0,1,.26-1.88,61.6,61.6,0,0,1-5.84,6.67,10,10,0,0,1-4.51,2.47,4.58,4.58,0,0,1-3.56-.57,4.22,4.22,0,0,1-1.78-2.81,9.34,9.34,0,0,1-.08-1.23A27.47,27.47,0,0,1,134.84,58q1.2-3.68,1.77-5.5a7.34,7.34,0,0,1,1.71-3,2.86,2.86,0,0,1,2-1.12,2.76,2.76,0,0,1,2.5,2.39c.2,1-.26,3.22-1.39,6.56s-1.63,5.32-1.51,5.93.45.72,1.07.61,2-1.43,4.23-4q2.52-2.9,5.13-5.81a27.08,27.08,0,0,1,2.11-4.28c1-1.55,1.87-2.41,2.67-2.56a2.17,2.17,0,0,1,2.13.59,4.31,4.31,0,0,1,1,2.18q.15.78-1.69,5.16t-1.68,5.23c.14.75.54,1.07,1.2.94q1.7-.32,6.49-7.53T169,46.31a5.06,5.06,0,0,1,1.53-.07c1.29.15,2,.72,2.22,1.71a8.92,8.92,0,0,1-.57,3.73c-.53,1.74-1.06,3.51-1.59,5.33l.15.77a2.66,2.66,0,0,0,.44,1.2c.19.23.55.3,1.07.2a16.39,16.39,0,0,0,7.43-3.68q3.07-3.15,6.21-6.31a1.76,1.76,0,0,1,1.2.14A1,1,0,0,1,187.53,50.27Z"/><path class="cls-2" d="M217.58,50.28q.27,1.42-4.18,5t-6.91,4.09c-2,.38-3.5.07-4.54-.93a7.67,7.67,0,0,1-2.09-4.26,14.56,14.56,0,0,1-.25-1.71A35.26,35.26,0,0,1,194,59.07a13.52,13.52,0,0,1-6.23,3.46,4.51,4.51,0,0,1-3.52-.62A4.33,4.33,0,0,1,182.44,59a9.55,9.55,0,0,1-.07-1.16,32.92,32.92,0,0,1,.83-6.46c.08-.31.54-2,1.36-5.17a5,5,0,0,1,1.85-2.8,3.7,3.7,0,0,1,2.42-.94c.65.08,1.07.58,1.25,1.53l.17.92a16.64,16.64,0,0,1-.74,4.61,16,16,0,0,0-.71,4.75c.1.52.43.72,1,.61A9.31,9.31,0,0,0,193.4,53a33.65,33.65,0,0,0,4.38-4,19.34,19.34,0,0,0,2.37-3.75c.86-1.63,1.55-2.49,2.07-2.59a3.51,3.51,0,0,1,2.41.16,2.14,2.14,0,0,1,1,1.54,3.82,3.82,0,0,1,0,1.35,7.41,7.41,0,0,1-.39,1.43,8.31,8.31,0,0,0-.22,2.68,20.76,20.76,0,0,0,.3,3.32q.18,1,1,.84a17.2,17.2,0,0,0,4.89-1.88c1.79-1,3.63-2,5.53-3.1C217.13,49.08,217.43,49.48,217.58,50.28Z"/><path class="cls-2" d="M235.19,2.9q.52,2.76-.9,8.38a107.76,107.76,0,0,1-4,12q-2.12,5.46-5.43,13.12a3.73,3.73,0,0,1,2,1.93,11.48,11.48,0,0,1,1.17,3.26,12.23,12.23,0,0,1,.18,1.72,15.11,15.11,0,0,0,2.77-.82A12.66,12.66,0,0,0,233.77,41a23.22,23.22,0,0,0,2.43-2.22,5.06,5.06,0,0,1,2.35-1.54,1.92,1.92,0,0,1,1.72.37,2.43,2.43,0,0,1,.82,1.42q.36,1.91-4.47,6.2a17.6,17.6,0,0,1-4.26,2.27c-1.27.49-2.85,1.05-4.73,1.7a40.37,40.37,0,0,1-1.33,7.29q-1.37,4-4.41,4.57a7.52,7.52,0,0,1-3.75-.09,3.42,3.42,0,0,1-2.5-2.75,31.89,31.89,0,0,1-.09-9.36,113.4,113.4,0,0,1,2-11.29q.62-2.91,1.4-7.3c1.33-7.64,2.05-11.7,2.15-12.21a50.53,50.53,0,0,1,3.7-12.21q2.49-5,6.09-5.7a3.75,3.75,0,0,1,3,.38A3.73,3.73,0,0,1,235.19,2.9ZM223,48.67a1.64,1.64,0,0,0-.26-1.34.75.75,0,0,0-.84-.21c-1.64.65-2.39,2.07-2.27,4.24a6.9,6.9,0,0,0,.15,1.22,3.8,3.8,0,0,0,.43,1.27.5.5,0,0,0,.73.2,2.77,2.77,0,0,0,1.57-1.95A9.9,9.9,0,0,0,223,48.67Zm6.51-36a1,1,0,0,0-1.26-.86q-1,.2-2.61,6.72a87.29,87.29,0,0,0-2,10.42q1.71-3.69,3.73-8.92C229,16,229.65,13.5,229.5,12.7Z"/><path class="cls-2" d="M269.07,33.92q.35,1.84-4.58,7.91Q259,48.6,254.22,49.49a6.45,6.45,0,0,1-5.84-1.39,10.58,10.58,0,0,1-2.51-4c-1.51,2.1-2.69,3.71-3.55,4.85q-2.46,3.26-3.81,3.51A2,2,0,0,1,236.4,52a5.62,5.62,0,0,1-.94-2.42l-.17-.92c-.23-1.18.23-4.78,1.35-10.81s2.24-9.14,3.32-9.35,2-.17,2.46.19a3.48,3.48,0,0,1,.88,2q.18.91-1.34,7.58-.61,2.61-1.21,5.22,5.43-7.69,8.93-12.4,3.87-5.13,6.13-5.56a2.65,2.65,0,0,1,2.59.5,6.14,6.14,0,0,1,1.12,2.83q.47,2.48-4.95,6.36A27.57,27.57,0,0,0,249,40a12.07,12.07,0,0,0,2.35,2.71A4.3,4.3,0,0,0,255,43.77q2.84-.54,6.07-3.94,3-3.57,6-7.22a1.68,1.68,0,0,1,1.27.31A1.59,1.59,0,0,1,269.07,33.92Z"/><path class="cls-2" d="M297.07,34q.24,1.27-4,5t-6.82,4.26c-2.17.41-3.73.15-4.69-.8-1-1.43-1.76-2.57-2.41-3.42a50.73,50.73,0,0,1-3.27,4A12.37,12.37,0,0,1,269,46.53c-1.79.34-3,.26-3.71-.25a4.49,4.49,0,0,1-1.42-2.88q-.77-4,3.64-9.78T276.69,27a5.82,5.82,0,0,1,4.77.78,7.58,7.58,0,0,1,2.6,4,9.51,9.51,0,0,1,.31,1.63c.1.81.2,1.45.29,1.92a5.54,5.54,0,0,0,.77,2.13A1.43,1.43,0,0,0,287,38a10.76,10.76,0,0,0,3.66-1.8c1.49-1,3-2.09,4.62-3.22C296.31,32.78,296.91,33.11,297.07,34Zm-20.18.24c-.14-.76-.64-1.06-1.49-.89A6.14,6.14,0,0,0,272,35.94c-1.18,1.54-1.68,2.78-1.5,3.73q.19.61,1.89.3c.85-.16,1.86-.94,3-2.34S277.06,35.09,276.89,34.2Z"/><path class="cls-2" d="M193.19,96.74v33.12h-7.35V115.07H174.18v14.79h-7.3V96.74h7.3v12.67h11.66V96.74Z"/><path class="cls-2" d="M226.4,96.74v33.12h-7.34V115.07H207.39v14.79H200.1V96.74h7.29v12.67h11.67V96.74Z"/><path class="cls-1" d="M166.88,109.07l-3-.45c-4-.61-8.08-1.25-12.13-1.82-17.32-2.43-37.58-4.23-56.51,1-7.82,2.14-15.33,5.44-22.6,8.63-1.59.7-3.18,1.4-4.77,2.08-8.62,3.72-17.9,7.3-27.42,8.36-10.36,1.15-19.89-.95-26.84-5.92C5.77,115.26,1.57,105.46,3.43,97.08a18.4,18.4,0,0,1,8.32-11.35,15,15,0,0,1,11.62-2,1.5,1.5,0,0,0,.74-2.91,18,18,0,0,0-13.92,2.4A21.47,21.47,0,0,0,.5,96.43C-1.61,106,3.08,117,11.9,123.34c6.22,4.45,14.27,6.79,23.12,6.79a52.06,52.06,0,0,0,5.8-.33c9.91-1.1,19.45-4.78,28.27-8.58q2.4-1,4.8-2.1c7.16-3.14,14.57-6.4,22.18-8.48,18.4-5,38.28-3.26,55.31-.87,4,.57,8.12,1.2,12.08,1.81l3.42.53Z"/><path class="cls-1" d="M323.42,44.26a16.07,16.07,0,0,0-13.19-6.43c-7.11.31-14.08,4.65-20.7,12.89-4.77,5.93-8.72,12.57-12.55,19-5.33,9-10.84,18.21-18.5,25.31-9.45,8.76-21.07,13.37-32.08,15.68v3.06c11.63-2.36,24-7.18,34.12-16.54,8-7.39,13.6-16.84,19-26,3.77-6.34,7.67-12.89,12.3-18.65,6.07-7.54,12.29-11.5,18.51-11.78A13.34,13.34,0,0,1,321,46.06a8.27,8.27,0,0,1,1.55,7.75,1.5,1.5,0,0,0,2.84,1A11.2,11.2,0,0,0,323.42,44.26Z"/></g></g></svg>