<svg width="202" height="82" viewBox="0 0 202 82" fill="none" xmlns="http://www.w3.org/2000/svg">
<path d="M189.447 40.039C189.564 36.1321 185.989 33.2335 182.122 32.6663C179.804 32.3198 177.412 32.6222 175.02 33.1642L175.132 33.1326C121.324 43.4921 66.8969 53.5239 13.0955 63.8834C66.4507 59.3275 119.8 54.7716 173.155 50.2157C176.588 49.9195 180.126 49.6045 183.33 48.0543C186.528 46.5042 189.341 43.4102 189.447 40.0453V40.039ZM164.126 40.3036C165.613 39.516 167.163 38.8543 168.774 38.3628C171.085 37.657 173.465 37.134 175.789 36.945C177.747 36.7875 179.693 36.9135 181.546 37.342C182.469 37.5562 183.392 37.8524 184.086 38.4447C184.78 39.037 185.226 39.9823 185.003 40.9338C184.787 41.8538 183.956 42.8494 183.151 43.4102C180.814 45.0297 179.445 45.433 176.737 45.9119C173.446 46.4979 169.009 46.5609 165.08 46.0505C162.18 45.6724 161.53 41.6836 164.12 40.3162L164.126 40.3036Z" fill="white"/>
<path d="M56.4799 44.7966C57.1182 47.2793 56.8641 49.9511 55.7239 52.8119C54.8935 54.8977 53.6107 56.9771 51.8818 59.044C49.7625 61.6024 47.8662 63.518 46.1869 64.7909C43.4045 66.9207 40.0953 68.4961 36.2532 69.5169C34.295 70.0399 32.6652 70.1849 31.3701 69.9643C29.7651 69.6997 28.7798 68.849 28.4142 67.4312C28.1849 66.5364 28.2097 65.7613 28.4885 65.0996C28.7674 64.438 29.226 64.0221 29.8643 63.852C30.3042 63.7322 31.5746 63.6125 33.6815 63.4928C34.9457 63.4172 35.9124 63.2911 36.5941 63.1084C38.8745 62.5035 40.9443 61.7221 42.8157 60.7706C44.6872 59.8191 46.1931 58.8424 47.3457 57.8404C49.0498 56.347 50.4627 54.633 51.5658 52.7111C52.6688 50.7892 53.1088 49.3588 52.8671 48.4262C52.6192 47.4494 52.1421 46.687 51.448 46.1325C50.3883 45.3322 49.0002 45.1557 47.2775 45.6094C46.317 45.8615 45.2635 46.2963 44.1233 46.9012C42.9769 47.5125 41.88 48.193 40.8389 48.9492C40.5167 52.6796 40.2378 55.1687 40.0024 56.4037C39.3827 59.6489 38.4779 61.4322 37.2757 61.7536C35.3981 62.2514 34.2516 61.6906 33.8303 60.0648C33.57 59.0503 33.7745 57.2796 34.45 54.7528C34.9829 52.8308 35.615 50.9908 36.3586 49.2327C35.237 49.3588 34.3942 49.3084 33.8241 49.0941C33.254 48.8799 32.8697 48.3631 32.659 47.5503C32.5351 47.0651 32.6281 46.4727 32.9441 45.7796C33.254 45.0864 33.6134 44.6894 34.0162 44.5823L34.9767 44.3303C35.6955 44.1412 36.7366 43.7757 38.0937 43.2401C38.6329 41.0157 39.6429 37.7957 41.1178 33.5801C42.2518 30.4987 43.0822 28.1735 43.6151 26.5981C42.8591 26.4973 42.1093 26.4784 41.3595 26.5477C40.6097 26.617 39.8536 26.7557 39.0914 26.9573C36.8667 27.7639 34.7784 28.9486 32.8326 30.5113C31.2338 31.759 30.013 33.0004 29.1764 34.2165C28.6559 35.1806 27.875 35.7982 26.834 36.0754C26.2329 36.233 25.8115 36.1637 25.5636 35.8612C25.3157 35.5587 25.1112 35.105 24.9563 34.4938C24.5287 32.8302 26.0036 30.5113 29.3871 27.556C32.7706 24.5943 36.2347 22.6409 39.7979 21.6957C43.6337 20.6748 46.8871 20.7 49.5518 21.7713C52.5077 22.9811 54.4411 25.3379 55.3397 28.8288C55.8912 30.9839 55.5504 33.2272 54.311 35.5524C53.3938 37.3168 51.8136 39.3017 49.5642 41.5009C51.2125 41.2804 52.6998 41.4631 54.0259 42.0429C55.3521 42.6226 56.17 43.5489 56.4985 44.8029L56.4799 44.7966ZM50.6796 30.7066C50.5247 30.0954 50.0661 29.4401 49.3039 28.728C48.5479 28.016 47.8166 27.6253 47.1102 27.5497C45.468 32.282 43.8444 37.0143 42.2394 41.7404C44.2472 40.9023 46.0381 39.7554 47.6307 38.2872C50.3326 35.836 51.3489 33.3028 50.6796 30.7066Z" fill="white"/>
<path d="M73.3974 38.3186C73.6019 37.2978 73.9179 36.4408 74.3517 35.754C74.7855 35.0734 75.2193 34.6827 75.6593 34.6008C76.186 34.5 76.6012 34.4748 76.9172 34.5189C77.2271 34.5693 77.4316 34.8277 77.5183 35.3066C77.5493 35.483 77.2766 36.6173 76.7003 38.6967C76.1178 40.7762 75.87 42.0302 75.9443 42.4461C76.0311 42.9187 76.1736 43.1959 76.3719 43.2652C76.564 43.3345 76.8677 43.3282 77.2766 43.2526C77.8592 43.1392 78.9808 41.9104 80.6292 39.56C82.2775 37.2096 83.3372 35.9871 83.8082 35.8989C84.3907 35.7855 84.7377 36.0123 84.8431 36.5795C84.967 37.2348 83.8887 39.163 81.6083 42.3767C79.1915 45.7984 77.3386 47.6321 76.0497 47.8841C75.2317 48.0417 74.5128 47.8968 73.8993 47.4431C73.2859 46.9957 72.914 46.4096 72.7777 45.6976C72.6972 45.2502 72.7033 44.6326 72.7963 43.845C72.8893 43.0573 73.0008 42.4208 73.1185 41.9356C72.5174 42.4524 71.7738 42.9691 70.8877 43.4984C70.0015 44.0214 69.1897 44.4184 68.4523 44.683C68.1858 46.1828 67.4794 47.4368 66.3391 48.4387C65.1927 49.4469 63.7612 50.1148 62.0385 50.4488C61.2763 50.5937 60.607 50.4425 60.0245 49.9825C59.442 49.5288 59.064 48.8357 58.8905 47.9157C58.6178 46.46 58.6674 44.8532 59.033 43.0825C59.2375 42.0617 59.5845 40.7573 60.0803 39.1882C60.4707 37.8838 60.7433 37.0773 60.8983 36.7685C61.2949 35.9808 61.834 35.5271 62.5033 35.3948C63.03 35.294 63.4762 35.3444 63.848 35.5523C64.2198 35.7603 64.4429 36.069 64.5235 36.4849C64.542 36.5732 64.5358 36.7118 64.5111 36.9008C64.3561 37.7011 64.0153 38.6274 63.4886 39.686C63.1106 40.4044 62.8379 40.9211 62.6892 41.2236C63.1106 40.8959 63.6435 40.6691 64.288 40.543C65.106 40.3855 65.8868 40.4674 66.6242 40.7825C67.3616 41.0976 67.9255 41.734 68.3159 42.6729C68.694 42.5973 69.1277 42.3704 69.6173 41.9797C70.1068 41.5954 70.4725 41.3181 70.7079 41.148C71.4764 40.5682 72.1084 40.0074 72.598 39.4655C73.0876 38.9236 73.354 38.5392 73.4036 38.3186H73.3974ZM64.8519 45.8299C64.9324 45.6283 65.0006 45.2628 65.0564 44.7272C64.5297 44.828 64.0897 44.828 63.7364 44.7272C63.3832 44.6263 63.0734 44.4625 62.8069 44.2356C62.5404 44.0088 62.2616 43.7693 61.9703 43.5173C61.865 43.7567 61.7906 44.0088 61.7472 44.2735C61.7039 44.5444 61.6853 44.8721 61.6791 45.2565C61.6791 45.6409 61.6915 45.9244 61.7225 46.1009C61.8526 46.7877 62.0571 47.1658 62.3483 47.254C62.6396 47.3422 62.9247 47.3485 63.2159 47.2918C63.5691 47.2225 63.8728 47.0839 64.133 46.8633C64.3933 46.6428 64.635 46.2962 64.8457 45.8236L64.8519 45.8299Z" fill="white"/>
<path d="M116.212 31.6771C116.106 32.5908 114.948 34.3048 112.723 36.8316C110.219 39.6547 108.05 41.2426 106.21 41.5955C104.983 41.8349 103.967 41.5703 103.155 40.8015C102.529 40.2155 102.132 39.4593 101.959 38.5393C101.915 38.2999 101.922 37.947 101.984 37.4744C101.996 37.3799 102.052 37.09 102.139 36.6111C100.781 38.9048 99.9635 40.2155 99.6908 40.5432C98.5072 42.0051 97.0261 42.9062 95.2476 43.2465C94.4854 43.3914 93.8595 43.2591 93.3576 42.8495C92.8556 42.4399 92.5582 41.9799 92.4652 41.4758C92.3599 40.9149 92.3103 40.4297 92.3103 40.0264C92.3103 39.6295 92.3661 39.2325 92.4776 38.8418C90.6619 41.1292 89.4597 42.5344 88.8586 43.0511C87.8671 43.9207 86.9376 44.4374 86.0638 44.6076C85.1901 44.7777 84.4527 44.658 83.864 44.2484C83.269 43.8388 82.9034 43.2465 82.7609 42.4777C82.7361 42.3328 82.7175 42.0681 82.7051 41.7026C82.6989 40.1966 82.984 38.4763 83.5603 36.5481C84.0622 35.0042 84.4279 33.8511 84.6633 33.0823C84.8988 32.3135 85.2521 31.6834 85.7168 31.1919C86.1878 30.7004 86.603 30.4672 86.9686 30.4861C87.8424 30.6248 88.3629 31.1289 88.5178 31.9859C88.6417 32.6412 88.3505 34.0212 87.6564 36.1259C86.9624 38.2306 86.6464 39.4782 86.7207 39.8626C86.7827 40.1903 86.9996 40.3163 87.3838 40.2407C87.737 40.1714 88.6108 39.3459 90.0051 37.7516C91.0523 36.5355 92.1058 35.313 93.1841 34.0905C93.5745 33.0949 94.0083 32.1938 94.4978 31.3872C95.1051 30.4105 95.6504 29.8686 96.1524 29.7741C96.7101 29.667 97.1439 29.793 97.4723 30.1459C97.7946 30.4987 98.0114 30.9587 98.1168 31.5196C98.1788 31.8472 97.8255 32.9311 97.0633 34.7711C96.3011 36.6111 95.9541 37.7075 96.0222 38.0667C96.109 38.5393 96.3569 38.741 96.7721 38.659C97.4723 38.5267 98.8108 36.9388 100.794 33.9141C102.771 30.8831 104.084 29.3078 104.723 29.1818C105.076 29.1124 105.386 29.0998 105.671 29.1376C106.476 29.2322 106.935 29.585 107.053 30.2089C107.139 30.6815 107.022 31.4692 106.699 32.5656C106.371 33.662 106.043 34.7774 105.714 35.9179L105.807 36.4094C105.875 36.7686 105.968 37.0207 106.086 37.1656C106.204 37.3105 106.421 37.3547 106.743 37.2916C108.348 36.9829 109.885 36.2078 111.353 34.9727C112.618 33.6494 113.9 32.3261 115.202 30.9966C115.493 30.9398 115.741 30.9714 115.945 31.0848C116.15 31.1982 116.243 31.3998 116.237 31.6771H116.212Z" fill="white"/>
<path d="M134.833 31.6833C134.945 32.2756 134.084 33.3342 132.249 34.8592C130.415 36.3841 128.984 37.2411 127.961 37.4427C126.734 37.6822 125.798 37.4868 125.148 36.8567C124.497 36.2266 124.069 35.3318 123.852 34.1723C123.766 33.6997 123.71 33.3405 123.698 33.0948C122.564 34.7898 121.411 36.1699 120.246 37.2222C118.901 38.4384 117.612 39.163 116.385 39.3962C115.536 39.56 114.811 39.434 114.204 39.0118C113.597 38.5896 113.219 37.9783 113.07 37.1781C113.045 37.0583 113.033 36.8126 113.027 36.4471C113.07 35.0545 113.237 33.6997 113.541 32.3764C113.597 32.1811 113.875 31.0972 114.384 29.1186C114.576 28.375 114.96 27.7827 115.53 27.3479C116.1 26.9131 116.602 26.7178 117.03 26.7556C117.433 26.7997 117.687 27.1211 117.798 27.7134L117.903 28.2931C117.972 28.6523 117.817 29.6164 117.445 31.1981C117.073 32.7797 116.924 33.7753 117.005 34.1912C117.067 34.5189 117.271 34.6449 117.625 34.5819C118.238 34.4622 118.982 34.0715 119.855 33.4098C120.729 32.7482 121.634 31.9101 122.57 30.9019C122.898 30.5616 123.388 29.7739 124.038 28.5389C124.571 27.5117 124.999 26.9698 125.321 26.9068C125.99 26.7745 126.492 26.8123 126.815 27.0139C127.137 27.2156 127.341 27.5369 127.428 27.978C127.478 28.2427 127.478 28.5326 127.428 28.835C127.379 29.1375 127.298 29.44 127.186 29.7361C127.075 30.0323 127.031 30.5994 127.05 31.4249C127.069 32.2504 127.131 32.9498 127.236 33.5107C127.317 33.9266 127.515 34.103 127.837 34.04C128.742 33.8635 129.752 33.4729 130.861 32.8553C131.97 32.2441 133.117 31.5887 134.288 30.9019C134.561 30.9082 134.747 31.1665 134.84 31.6707L134.833 31.6833Z" fill="white"/>
<path d="M145.746 1.82739C145.963 2.98685 145.777 4.74494 145.188 7.10796C144.705 9.08029 143.893 11.5945 142.734 14.6444C141.861 16.9381 140.739 19.6918 139.369 22.9118C139.853 23.0631 140.268 23.4727 140.615 24.128C140.962 24.7834 141.204 25.4702 141.34 26.1823C141.408 26.5414 141.445 26.9006 141.452 27.2661C142.003 27.159 142.579 26.9888 143.174 26.7494C143.763 26.5099 144.327 26.2012 144.866 25.8231C145.157 25.6151 145.666 25.1488 146.378 24.4242C146.936 23.8571 147.425 23.5294 147.834 23.4538C148.274 23.3718 148.628 23.4538 148.9 23.6869C149.173 23.9264 149.34 24.2225 149.408 24.5817C149.557 25.382 148.634 26.6864 146.638 28.4886C146.118 28.9297 145.238 29.4086 143.999 29.919C143.205 30.2278 142.232 30.5806 141.067 30.9902C140.795 33.2587 140.522 34.79 140.243 35.5839C139.679 37.2601 138.768 38.2242 137.51 38.4637C136.606 38.6401 135.831 38.6212 135.187 38.407C134.313 38.1108 133.798 37.5374 133.637 36.6741C133.346 35.0987 133.321 33.1327 133.582 30.776C133.78 28.9234 134.183 26.5477 134.796 23.6617C135.05 22.4455 135.341 20.908 135.664 19.0617C136.494 14.2537 136.934 11.6891 136.996 11.3677C137.665 7.97755 138.428 5.41288 139.283 3.6737C140.311 1.56904 141.576 0.371773 143.063 0.0819088C143.912 -0.0819273 144.538 -9.24533e-06 144.947 0.321362C145.356 0.642733 145.622 1.14684 145.752 1.82739H145.746ZM138.186 30.6689C138.229 30.2593 138.18 29.9757 138.031 29.8245C137.882 29.6669 137.703 29.6291 137.504 29.6921C136.494 30.1017 136.023 30.9965 136.098 32.3639C136.098 32.5215 136.129 32.7735 136.197 33.1327C136.265 33.4919 136.352 33.7565 136.457 33.9393C136.568 34.1157 136.717 34.1598 136.909 34.059C137.337 33.9141 137.659 33.5045 137.882 32.8302C138.105 32.156 138.204 31.4376 138.186 30.6689ZM142.22 8.00276C142.139 7.55536 141.873 7.37892 141.439 7.46084C141.03 7.54275 140.491 8.95426 139.822 11.6954C139.239 14.0836 138.83 16.2765 138.595 18.2614C139.301 16.7113 140.076 14.8335 140.906 12.6406C141.879 10.0507 142.313 8.50687 142.22 8.00276Z" fill="white"/>
<path d="M166.741 21.3743C166.884 22.1493 165.942 23.8066 163.903 26.3587C161.616 29.2006 159.497 30.8074 157.539 31.1855C156.076 31.4691 154.874 31.1792 153.926 30.3159C153.343 29.7803 152.823 28.9422 152.364 27.8017C151.429 29.1187 150.697 30.1395 150.164 30.8578C149.148 32.2252 148.361 32.9625 147.803 33.0696C147.19 33.1894 146.75 33.0822 146.496 32.7483C146.236 32.4143 146.044 31.9039 145.913 31.2233L145.808 30.6436C145.672 29.9 145.951 27.6315 146.651 23.8318C147.351 20.0321 148.033 18.0723 148.708 17.94C149.47 17.7951 149.972 17.8329 150.233 18.0597C150.487 18.2866 150.673 18.7025 150.778 19.2948C150.852 19.6792 150.573 21.2734 149.941 24.0712C149.694 25.1677 149.439 26.2641 149.192 27.3543C151.435 24.1217 153.281 21.5192 154.725 19.5469C156.324 17.3918 157.588 16.226 158.524 16.0433C159.286 15.8983 159.819 15.9992 160.129 16.3583C160.439 16.7175 160.668 17.3099 160.823 18.1416C161.015 19.1814 159.993 20.5173 157.756 22.1493C156.182 23.2836 155.041 24.3044 154.329 25.2118C154.837 25.9743 155.32 26.5477 155.785 26.9195C156.504 27.5181 157.254 27.745 158.047 27.5937C159.218 27.3669 160.47 26.5414 161.808 25.111C163.042 23.6112 164.275 22.0926 165.502 20.5677C165.762 20.5173 166.028 20.5803 166.289 20.763C166.549 20.9458 166.704 21.1537 166.747 21.3932L166.741 21.3743Z" fill="white"/>
<path d="M184.092 21.3995C184.192 21.9352 183.361 22.9938 181.595 24.5817C179.835 26.1697 178.422 27.0645 177.375 27.2661C176.03 27.5245 175.057 27.3606 174.469 26.7683C173.874 25.8672 173.378 25.1489 172.975 24.6069C172.176 25.6845 171.5 26.5226 170.949 27.1212C169.889 28.2491 168.482 28.9801 166.729 29.3204C165.62 29.5346 164.851 29.4842 164.43 29.1628C164.008 28.8478 163.711 28.2365 163.55 27.348C163.234 25.653 163.984 23.5987 165.805 21.1853C167.627 18.7719 169.517 17.3792 171.476 17.0012C172.703 16.7617 173.688 16.9255 174.425 17.4927C175.169 18.0598 175.702 18.9105 176.036 20.0447C176.098 20.2149 176.16 20.5614 176.229 21.0719C176.291 21.5823 176.353 21.9856 176.408 22.2817C176.52 22.8741 176.675 23.3215 176.885 23.6239C177.09 23.9201 177.412 24.0272 177.852 23.9453C178.435 23.8319 179.191 23.4538 180.114 22.8173C181.037 22.1746 181.998 21.5004 182.983 20.7883C183.628 20.6623 183.999 20.8702 184.099 21.4058L184.092 21.3995ZM171.587 21.5508C171.5 21.0782 171.191 20.8891 170.664 20.9899C169.964 21.1223 169.251 21.6768 168.52 22.6472C167.795 23.6176 167.485 24.399 167.596 24.9976C167.677 25.2623 168.067 25.3253 168.768 25.1867C169.294 25.0858 169.92 24.5943 170.651 23.7184C171.376 22.8363 171.692 22.1179 171.587 21.5508Z" fill="white"/>
<path d="M119.719 60.9597V81.8299H115.171V72.5165H107.945V81.8299H103.421V60.9597H107.945V68.9436H115.171V60.9597H119.719Z" fill="white"/>
<path d="M140.299 60.9597V81.8299H135.751V72.5165H128.525V81.8299H124.001V60.9597H128.525V68.9436H135.751V60.9597H140.299Z" fill="white"/>
<path d="M103.415 68.7294C102.802 68.6349 102.188 68.5403 101.581 68.4395C99.1207 68.0551 96.5738 67.6518 94.064 67.2927C83.331 65.7551 70.7699 64.6272 59.0392 67.8913C54.1932 69.2398 49.5394 71.3193 45.0404 73.3294C44.0551 73.7705 43.0698 74.2116 42.0783 74.6401C36.7366 76.9779 30.9859 79.2401 25.0927 79.9081C18.6727 80.639 12.7609 79.3094 8.46021 76.1776C3.57706 72.6236 0.97437 66.4546 2.12699 61.1677C2.74668 58.3195 4.67391 55.6477 7.2828 54.0219C9.59424 52.5789 12.1536 52.1189 14.4774 52.7239C14.9731 52.8562 15.4813 52.5474 15.6114 52.0433C15.7416 51.5392 15.4379 51.0225 14.9422 50.8902C12.1226 50.1529 9.05511 50.6948 6.30989 52.4088C3.27961 54.2992 1.03634 57.4184 0.311303 60.7581C-0.996241 66.7634 1.9039 73.739 7.37576 77.7152C11.224 80.5193 16.2187 81.9938 21.6968 81.9938C22.8742 81.9938 24.0764 81.9245 25.2972 81.7859C31.4383 81.0927 37.3439 78.7738 42.8158 76.3793C43.8073 75.9445 44.7988 75.5034 45.7903 75.0623C50.2272 73.0773 54.8191 71.0294 59.535 69.7187C70.9434 66.5491 83.2629 67.6645 93.81 69.1705C96.3073 69.5297 98.8418 69.9267 101.302 70.311C102.008 70.4245 102.715 70.5316 103.421 70.645V68.7357L103.415 68.7294Z" fill="white"/>
<path d="M200.421 27.89C198.5 25.2875 195.284 23.6743 192.248 23.8319C187.835 24.0335 183.522 26.7683 179.414 31.9544C176.464 35.6911 174.01 39.8752 171.643 43.9207C168.34 49.5604 164.925 55.3955 160.179 59.8695C154.323 65.3895 147.122 68.2945 140.299 69.7501V71.6783C147.506 70.1912 155.184 67.1539 161.443 61.2558C166.388 56.5991 169.871 50.6443 173.242 44.8848C175.578 40.8897 177.995 36.7623 180.864 33.1327C184.619 28.3815 188.48 25.8861 192.328 25.7097C194.72 25.6152 197.391 26.9259 198.928 29.0116C200.08 30.5744 200.421 32.3072 199.888 33.8889C199.721 34.3804 199.981 34.9223 200.465 35.0862C200.954 35.2563 201.481 34.9916 201.642 34.5001C202.379 32.3072 201.939 29.9568 200.409 27.8774L200.421 27.89Z" fill="white"/>
</svg>
