<svg width="47" height="43" viewBox="0 0 47 43" fill="none" xmlns="http://www.w3.org/2000/svg">
<rect x="2" y="2" width="43" height="39" rx="9.5" stroke="#943738" stroke-width="3"/>
<path fill-rule="evenodd" clip-rule="evenodd" d="M10.5361 13.4351C10.5361 12.786 11.0638 12.2598 11.7146 12.2598H16.4287C17.0796 12.2598 17.6072 12.786 17.6072 13.4351V19.312C17.6072 20.2472 17.9797 21.1441 18.6427 21.8053C19.0192 22.1808 19.4717 22.4628 19.9642 22.6365V13.4351C19.9642 12.786 20.4919 12.2598 21.1427 12.2598H25.8568C26.5077 12.2598 27.0353 12.786 27.0353 13.4351V17.1795C27.5317 16.9413 27.9798 16.6052 28.3503 16.1867C29.0217 15.4283 29.3923 14.4515 29.3923 13.4398C29.3923 12.7907 29.92 12.2645 30.5708 12.2645H35.2849C35.6379 12.2645 35.9724 12.4223 36.1962 12.6946C36.4201 12.9669 36.5097 13.3249 36.4405 13.6702L36.0375 15.6813L36.0375 15.6814C35.7609 17.0606 35.1721 18.3586 34.316 19.4764C33.8988 20.0211 33.4235 20.516 32.8998 20.9531C33.3862 21.2967 33.8318 21.6985 34.2259 22.1516C35.1037 23.1608 35.6933 24.3869 35.9329 25.7015L35.9329 25.7016L36.4444 28.5096C36.5069 28.8525 36.4135 29.2053 36.1896 29.4729C35.9657 29.7404 35.6343 29.8951 35.2849 29.8951H30.5708C29.92 29.8951 29.3923 29.3688 29.3923 28.7197C29.3923 27.708 29.0217 26.7312 28.3503 25.9728C27.9886 25.5643 27.553 25.2343 27.0707 24.9972V28.7244C27.0707 29.0895 26.9005 29.434 26.6101 29.6564C26.3618 29.8467 26.0497 29.9293 25.7433 29.8904H21.1427C18.3297 29.8904 15.6319 28.7759 13.6427 26.792C11.6536 24.8082 10.5361 22.1176 10.5361 19.312V13.4351ZM24.7136 27.5396V23.4352C24.7136 23.0981 24.8587 22.7773 25.1121 22.5541C25.3655 22.331 25.7027 22.2271 26.0381 22.2689C27.6148 22.4651 29.0654 23.2289 30.1171 24.4169C30.9056 25.3074 31.4292 26.3903 31.6419 27.5443H33.873L33.6139 26.122C33.6139 26.1219 33.6139 26.1219 33.6139 26.1218C33.4498 25.222 33.0462 24.3828 32.4454 23.6919C31.8445 23.001 31.0684 22.484 30.1983 22.1949C29.7461 22.0446 29.4291 21.6374 29.3953 21.1632C29.3615 20.6889 29.6174 20.2411 30.0438 20.0285C30.9842 19.5596 31.8047 18.8827 32.4429 18.0494C33.0811 17.2162 33.52 16.2485 33.7262 15.2204L33.8475 14.6152H31.6419C31.4292 15.7692 30.9056 16.8521 30.1171 17.7427C29.0654 18.9306 27.6148 19.6944 26.0381 19.8906C25.9897 19.8967 25.9409 19.8997 25.8921 19.8997H25.8568C25.2059 19.8997 24.6783 19.3735 24.6783 18.7243V14.6105H22.3213V24.0135C22.3213 24.3252 22.1971 24.6242 21.9761 24.8446C21.7551 25.065 21.4553 25.1889 21.1427 25.1889C19.5799 25.1889 18.0811 24.5697 16.9761 23.4676C15.871 22.3654 15.2502 20.8706 15.2502 19.312V14.6105H12.8932V19.312C12.8932 21.4941 13.7623 23.5868 15.3094 25.1298C16.8565 26.6728 18.9548 27.5396 21.1427 27.5396H24.7136Z" fill="#943738"/>
</svg>
